<?xml version="1.0" standalone="no"?><!DOCTYPE svg PUBLIC "-//W3C//DTD SVG 1.1//EN" "http://www.w3.org/Graphics/SVG/1.1/DTD/svg11.dtd"><svg width="960" height="500" version="1.1" xmlns="http://www.w3.org/2000/svg" xmlns:xlink="http://www.w3.org/1999/xlink"><defs class="svg-crowbar"><style type="text/css"><![CDATA[
.node { stroke: rgb(255, 255, 255); stroke-width: 1.5px; }
.link { stroke: rgb(153, 153, 153); stroke-opacity: 0.6; }]]></style></defs><line class="link" x1="576.9060481417262" y1="207.38761377364398" x2="525.3704429033392" y2="230.19818967546067" style="stroke-width: 1px;"></line><line class="link" x1="500.1312618080803" y1="247.3304162608597" x2="525.3704429033392" y2="230.19818967546067" style="stroke-width: 2.8284271247461903px;"></line><line class="link" x1="494.73081000573364" y1="217.99120662501764" x2="525.3704429033392" y2="230.19818967546067" style="stroke-width: 3.1622776601683795px;"></line><line class="link" x1="494.73081000573364" y1="217.99120662501764" x2="500.1312618080803" y2="247.3304162608597" style="stroke-width: 2.449489742783178px;"></line><line class="link" x1="596.6915110161882" y1="241.1155375282944" x2="525.3704429033392" y2="230.19818967546067" style="stroke-width: 1px;"></line><line class="link" x1="584.1949333963883" y1="189.34232419835564" x2="525.3704429033392" y2="230.19818967546067" style="stroke-width: 1px;"></line><line class="link" x1="581.3794189428511" y1="231.7461137671769" x2="525.3704429033392" y2="230.19818967546067" style="stroke-width: 1px;"></line><line class="link" x1="564.8694347878413" y1="180.50697171897633" x2="525.3704429033392" y2="230.19818967546067" style="stroke-width: 1px;"></line><line class="link" x1="596.0219831381094" y1="214.25764456394242" x2="525.3704429033392" y2="230.19818967546067" style="stroke-width: 1.4142135623730951px;"></line><line class="link" x1="582.9920768911653" y1="258.40212706616376" x2="525.3704429033392" y2="230.19818967546067" style="stroke-width: 1px;"></line><line class="link" x1="421.91704023208865" y1="253.1092700133854" x2="460.28706559886143" y2="194.70505742610624" style="stroke-width: 1px;"></line><line class="link" x1="421.91704023208865" y1="253.1092700133854" x2="494.73081000573364" y2="217.99120662501764" style="stroke-width: 1.7320508075688772px;"></line><line class="link" x1="421.91704023208865" y1="253.1092700133854" x2="500.1312618080803" y2="247.3304162608597" style="stroke-width: 1.7320508075688772px;"></line><line class="link" x1="421.91704023208865" y1="253.1092700133854" x2="525.3704429033392" y2="230.19818967546067" style="stroke-width: 2.23606797749979px;"></line><line class="link" x1="443.7051323456795" y1="326.0354867859254" x2="421.91704023208865" y2="253.1092700133854" style="stroke-width: 1px;"></line><line class="link" x1="466.12224203501347" y1="215.67083195620395" x2="421.91704023208865" y2="253.1092700133854" style="stroke-width: 1px;"></line><line class="link" x1="478.0465885903053" y1="230.1961560212624" x2="421.91704023208865" y2="253.1092700133854" style="stroke-width: 1px;"></line><line class="link" x1="479.21868253900914" y1="200.68217263183743" x2="421.91704023208865" y2="253.1092700133854" style="stroke-width: 1px;"></line><line class="link" x1="374.938599164466" y1="382.60271613149496" x2="383.9675093169219" y2="340.25057493986054" style="stroke-width: 2px;"></line><line class="link" x1="395.076638827628" y1="380.8932215774596" x2="383.9675093169219" y2="340.25057493986054" style="stroke-width: 2px;"></line><line class="link" x1="395.076638827628" y1="380.8932215774596" x2="374.938599164466" y2="382.60271613149496" style="stroke-width: 2px;"></line><line class="link" x1="399.72582056628823" y1="404.68723190044125" x2="383.9675093169219" y2="340.25057493986054" style="stroke-width: 2px;"></line><line class="link" x1="399.72582056628823" y1="404.68723190044125" x2="374.938599164466" y2="382.60271613149496" style="stroke-width: 2px;"></line><line class="link" x1="399.72582056628823" y1="404.68723190044125" x2="395.076638827628" y2="380.8932215774596" style="stroke-width: 2px;"></line><line class="link" x1="415.59778057182115" y1="381.0071553260192" x2="383.9675093169219" y2="340.25057493986054" style="stroke-width: 1.7320508075688772px;"></line><line class="link" x1="415.59778057182115" y1="381.0071553260192" x2="374.938599164466" y2="382.60271613149496" style="stroke-width: 1.7320508075688772px;"></line><line class="link" x1="415.59778057182115" y1="381.0071553260192" x2="395.076638827628" y2="380.8932215774596" style="stroke-width: 1.7320508075688772px;"></line><line class="link" x1="415.59778057182115" y1="381.0071553260192" x2="399.72582056628823" y2="404.68723190044125" style="stroke-width: 2px;"></line><line class="link" x1="381.2322385724019" y1="399.9347285597482" x2="383.9675093169219" y2="340.25057493986054" style="stroke-width: 1.7320508075688772px;"></line><line class="link" x1="381.2322385724019" y1="399.9347285597482" x2="374.938599164466" y2="382.60271613149496" style="stroke-width: 1.7320508075688772px;"></line><line class="link" x1="381.2322385724019" y1="399.9347285597482" x2="395.076638827628" y2="380.8932215774596" style="stroke-width: 1.7320508075688772px;"></line><line class="link" x1="381.2322385724019" y1="399.9347285597482" x2="399.72582056628823" y2="404.68723190044125" style="stroke-width: 1.7320508075688772px;"></line><line class="link" x1="381.2322385724019" y1="399.9347285597482" x2="415.59778057182115" y2="381.0071553260192" style="stroke-width: 2.23606797749979px;"></line><line class="link" x1="417.41089895007" y1="398.26468568128803" x2="383.9675093169219" y2="340.25057493986054" style="stroke-width: 1.7320508075688772px;"></line><line class="link" x1="417.41089895007" y1="398.26468568128803" x2="374.938599164466" y2="382.60271613149496" style="stroke-width: 1.7320508075688772px;"></line><line class="link" x1="417.41089895007" y1="398.26468568128803" x2="395.076638827628" y2="380.8932215774596" style="stroke-width: 1.7320508075688772px;"></line><line class="link" x1="417.41089895007" y1="398.26468568128803" x2="399.72582056628823" y2="404.68723190044125" style="stroke-width: 1.7320508075688772px;"></line><line class="link" x1="417.41089895007" y1="398.26468568128803" x2="415.59778057182115" y2="381.0071553260192" style="stroke-width: 2px;"></line><line class="link" x1="417.41089895007" y1="398.26468568128803" x2="381.2322385724019" y2="399.9347285597482" style="stroke-width: 2px;"></line><line class="link" x1="403.6478243563874" y1="334.34394867384884" x2="383.9675093169219" y2="340.25057493986054" style="stroke-width: 1.7320508075688772px;"></line><line class="link" x1="403.6478243563874" y1="334.34394867384884" x2="374.938599164466" y2="382.60271613149496" style="stroke-width: 1.7320508075688772px;"></line><line class="link" x1="403.6478243563874" y1="334.34394867384884" x2="395.076638827628" y2="380.8932215774596" style="stroke-width: 1.7320508075688772px;"></line><line class="link" x1="403.6478243563874" y1="334.34394867384884" x2="399.72582056628823" y2="404.68723190044125" style="stroke-width: 1.7320508075688772px;"></line><line class="link" x1="403.6478243563874" y1="334.34394867384884" x2="415.59778057182115" y2="381.0071553260192" style="stroke-width: 2px;"></line><line class="link" x1="403.6478243563874" y1="334.34394867384884" x2="381.2322385724019" y2="399.9347285597482" style="stroke-width: 2px;"></line><line class="link" x1="403.6478243563874" y1="334.34394867384884" x2="417.41089895007" y2="398.26468568128803" style="stroke-width: 2px;"></line><line class="link" x1="403.6478243563874" y1="334.34394867384884" x2="443.7051323456795" y2="326.0354867859254" style="stroke-width: 1.4142135623730951px;"></line><line class="link" x1="403.6478243563874" y1="334.34394867384884" x2="421.91704023208865" y2="253.1092700133854" style="stroke-width: 3px;"></line><line class="link" x1="374.91917004954524" y1="292.4657851407053" x2="403.6478243563874" y2="334.34394867384884" style="stroke-width: 1.4142135623730951px;"></line><line class="link" x1="374.91917004954524" y1="292.4657851407053" x2="421.91704023208865" y2="253.1092700133854" style="stroke-width: 2.6457513110645907px;"></line><line class="link" x1="372.2417623799077" y1="269.5218284530748" x2="374.91917004954524" y2="292.4657851407053" style="stroke-width: 3.605551275463989px;"></line><line class="link" x1="372.2417623799077" y1="269.5218284530748" x2="403.6478243563874" y2="334.34394867384884" style="stroke-width: 1px;"></line><line class="link" x1="372.2417623799077" y1="269.5218284530748" x2="421.91704023208865" y2="253.1092700133854" style="stroke-width: 3.4641016151377544px;"></line><line class="link" x1="399.63184396565117" y1="255.4374080129131" x2="374.91917004954524" y2="292.4657851407053" style="stroke-width: 2px;"></line><line class="link" x1="399.63184396565117" y1="255.4374080129131" x2="421.91704023208865" y2="253.1092700133854" style="stroke-width: 5.5677643628300215px;"></line><line class="link" x1="399.63184396565117" y1="255.4374080129131" x2="383.9675093169219" y2="340.25057493986054" style="stroke-width: 1px;"></line><line class="link" x1="399.63184396565117" y1="255.4374080129131" x2="372.2417623799077" y2="269.5218284530748" style="stroke-width: 1px;"></line><line class="link" x1="392.661479674221" y1="273.12065409649114" x2="421.91704023208865" y2="253.1092700133854" style="stroke-width: 4.123105625617661px;"></line><line class="link" x1="392.661479674221" y1="273.12065409649114" x2="403.6478243563874" y2="334.34394867384884" style="stroke-width: 2.23606797749979px;"></line><line class="link" x1="392.661479674221" y1="273.12065409649114" x2="372.2417623799077" y2="269.5218284530748" style="stroke-width: 2.23606797749979px;"></line><line class="link" x1="392.661479674221" y1="273.12065409649114" x2="374.91917004954524" y2="292.4657851407053" style="stroke-width: 1px;"></line><line class="link" x1="392.661479674221" y1="273.12065409649114" x2="399.63184396565117" y2="255.4374080129131" style="stroke-width: 1px;"></line><line class="link" x1="439.59007677328367" y1="306.25184275704515" x2="421.91704023208865" y2="253.1092700133854" style="stroke-width: 2.8284271247461903px;"></line><line class="link" x1="439.59007677328367" y1="306.25184275704515" x2="392.661479674221" y2="273.12065409649114" style="stroke-width: 1px;"></line><line class="link" x1="451.2386057799461" y1="296.7011175055092" x2="403.6478243563874" y2="334.34394867384884" style="stroke-width: 1px;"></line><line class="link" x1="451.2386057799461" y1="296.7011175055092" x2="392.661479674221" y2="273.12065409649114" style="stroke-width: 1px;"></line><line class="link" x1="451.2386057799461" y1="296.7011175055092" x2="421.91704023208865" y2="253.1092700133854" style="stroke-width: 1.4142135623730951px;"></line><line class="link" x1="444.99687903968476" y1="369.1810885933733" x2="403.6478243563874" y2="334.34394867384884" style="stroke-width: 1px;"></line><line class="link" x1="422.3265918915111" y1="314.3623148890521" x2="444.99687903968476" y2="369.1810885933733" style="stroke-width: 1.4142135623730951px;"></line><line class="link" x1="422.3265918915111" y1="314.3623148890521" x2="421.91704023208865" y2="253.1092700133854" style="stroke-width: 1.7320508075688772px;"></line><line class="link" x1="422.3265918915111" y1="314.3623148890521" x2="403.6478243563874" y2="334.34394867384884" style="stroke-width: 1.4142135623730951px;"></line><line class="link" x1="422.3265918915111" y1="314.3623148890521" x2="392.661479674221" y2="273.12065409649114" style="stroke-width: 1px;"></line><line class="link" x1="480.2962541803101" y1="247.69785200414867" x2="421.91704023208865" y2="253.1092700133854" style="stroke-width: 1px;"></line><line class="link" x1="444.58594817309876" y1="276.65593282173876" x2="421.91704023208865" y2="253.1092700133854" style="stroke-width: 1.4142135623730951px;"></line><line class="link" x1="444.58594817309876" y1="276.65593282173876" x2="392.661479674221" y2="273.12065409649114" style="stroke-width: 1px;"></line><line class="link" x1="475.26493496884365" y1="268.8815945026509" x2="421.91704023208865" y2="253.1092700133854" style="stroke-width: 1.7320508075688772px;"></line><line class="link" x1="475.26493496884365" y1="268.8815945026509" x2="451.2386057799461" y2="296.7011175055092" style="stroke-width: 1.4142135623730951px;"></line><line class="link" x1="476.9172927935458" y1="289.32451150493085" x2="421.91704023208865" y2="253.1092700133854" style="stroke-width: 1.7320508075688772px;"></line><line class="link" x1="476.9172927935458" y1="289.32451150493085" x2="475.26493496884365" y2="268.8815945026509" style="stroke-width: 1.7320508075688772px;"></line><line class="link" x1="476.9172927935458" y1="289.32451150493085" x2="451.2386057799461" y2="296.7011175055092" style="stroke-width: 1.4142135623730951px;"></line><line class="link" x1="488.4349087328826" y1="305.7433404019887" x2="475.26493496884365" y2="268.8815945026509" style="stroke-width: 1.4142135623730951px;"></line><line class="link" x1="488.4349087328826" y1="305.7433404019887" x2="476.9172927935458" y2="289.32451150493085" style="stroke-width: 1.4142135623730951px;"></line><line class="link" x1="488.4349087328826" y1="305.7433404019887" x2="421.91704023208865" y2="253.1092700133854" style="stroke-width: 1.4142135623730951px;"></line><line class="link" x1="488.4349087328826" y1="305.7433404019887" x2="451.2386057799461" y2="296.7011175055092" style="stroke-width: 1px;"></line><line class="link" x1="495.4355877956108" y1="271.0702165464437" x2="475.26493496884365" y2="268.8815945026509" style="stroke-width: 1.4142135623730951px;"></line><line class="link" x1="495.4355877956108" y1="271.0702165464437" x2="476.9172927935458" y2="289.32451150493085" style="stroke-width: 1.4142135623730951px;"></line><line class="link" x1="495.4355877956108" y1="271.0702165464437" x2="488.4349087328826" y2="305.7433404019887" style="stroke-width: 1.4142135623730951px;"></line><line class="link" x1="495.4355877956108" y1="271.0702165464437" x2="421.91704023208865" y2="253.1092700133854" style="stroke-width: 1.4142135623730951px;"></line><line class="link" x1="495.4355877956108" y1="271.0702165464437" x2="451.2386057799461" y2="296.7011175055092" style="stroke-width: 1px;"></line><line class="link" x1="500.7933808169381" y1="289.65114532088154" x2="475.26493496884365" y2="268.8815945026509" style="stroke-width: 1.4142135623730951px;"></line><line class="link" x1="500.7933808169381" y1="289.65114532088154" x2="476.9172927935458" y2="289.32451150493085" style="stroke-width: 1.4142135623730951px;"></line><line class="link" x1="500.7933808169381" y1="289.65114532088154" x2="488.4349087328826" y2="305.7433404019887" style="stroke-width: 1.4142135623730951px;"></line><line class="link" x1="500.7933808169381" y1="289.65114532088154" x2="495.4355877956108" y2="271.0702165464437" style="stroke-width: 1.4142135623730951px;"></line><line class="link" x1="500.7933808169381" y1="289.65114532088154" x2="421.91704023208865" y2="253.1092700133854" style="stroke-width: 1.4142135623730951px;"></line><line class="link" x1="500.7933808169381" y1="289.65114532088154" x2="451.2386057799461" y2="296.7011175055092" style="stroke-width: 1px;"></line><line class="link" x1="406.72375661257706" y1="210.43446788447255" x2="372.2417623799077" y2="269.5218284530748" style="stroke-width: 1px;"></line><line class="link" x1="329.32105103709847" y1="322.5817981964521" x2="372.2417623799077" y2="269.5218284530748" style="stroke-width: 1px;"></line><line class="link" x1="337.33497009633686" y1="240.54194118928794" x2="374.91917004954524" y2="292.4657851407053" style="stroke-width: 1.4142135623730951px;"></line><line class="link" x1="337.33497009633686" y1="240.54194118928794" x2="372.2417623799077" y2="269.5218284530748" style="stroke-width: 1.7320508075688772px;"></line><line class="link" x1="329.2718437723415" y1="292.22203604333146" x2="337.33497009633686" y2="240.54194118928794" style="stroke-width: 1.4142135623730951px;"></line><line class="link" x1="329.2718437723415" y1="292.22203604333146" x2="372.2417623799077" y2="269.5218284530748" style="stroke-width: 1.4142135623730951px;"></line><line class="link" x1="329.2718437723415" y1="292.22203604333146" x2="374.91917004954524" y2="292.4657851407053" style="stroke-width: 1px;"></line><line class="link" x1="423.5237927233779" y1="290.6633498832969" x2="421.91704023208865" y2="253.1092700133854" style="stroke-width: 1.7320508075688772px;"></line><line class="link" x1="423.5237927233779" y1="290.6633498832969" x2="399.63184396565117" y2="255.4374080129131" style="stroke-width: 1px;"></line><line class="link" x1="423.5237927233779" y1="290.6633498832969" x2="392.661479674221" y2="273.12065409649114" style="stroke-width: 1px;"></line><line class="link" x1="471.6632799738629" y1="311.3819430557917" x2="439.59007677328367" y2="306.25184275704515" style="stroke-width: 1.7320508075688772px;"></line><line class="link" x1="471.6632799738629" y1="311.3819430557917" x2="421.91704023208865" y2="253.1092700133854" style="stroke-width: 1px;"></line><line class="link" x1="499.69546346577226" y1="359.9288748839991" x2="439.59007677328367" y2="306.25184275704515" style="stroke-width: 1.4142135623730951px;"></line><line class="link" x1="283.5608945363394" y1="234.62075670944682" x2="229.27068495582174" y2="255.49828279703598" style="stroke-width: 1px;"></line><line class="link" x1="355.6091763221352" y1="213.8183508161327" x2="283.5608945363394" y2="234.62075670944682" style="stroke-width: 1.4142135623730951px;"></line><line class="link" x1="355.6091763221352" y1="213.8183508161327" x2="372.2417623799077" y2="269.5218284530748" style="stroke-width: 1px;"></line><line class="link" x1="355.6091763221352" y1="213.8183508161327" x2="392.661479674221" y2="273.12065409649114" style="stroke-width: 1px;"></line><line class="link" x1="355.6091763221352" y1="213.8183508161327" x2="421.91704023208865" y2="253.1092700133854" style="stroke-width: 1px;"></line><line class="link" x1="421.8270316145452" y1="221.93019688040977" x2="399.63184396565117" y2="255.4374080129131" style="stroke-width: 1.7320508075688772px;"></line><line class="link" x1="421.8270316145452" y1="221.93019688040977" x2="421.91704023208865" y2="253.1092700133854" style="stroke-width: 1.4142135623730951px;"></line><line class="link" x1="416.0745914275987" y1="271.18963249259724" x2="421.8270316145452" y2="221.93019688040977" style="stroke-width: 1px;"></line><line class="link" x1="416.0745914275987" y1="271.18963249259724" x2="374.91917004954524" y2="292.4657851407053" style="stroke-width: 1px;"></line><line class="link" x1="431.5544908568302" y1="203.88342796994917" x2="421.8270316145452" y2="221.93019688040977" style="stroke-width: 3px;"></line><line class="link" x1="431.5544908568302" y1="203.88342796994917" x2="399.63184396565117" y2="255.4374080129131" style="stroke-width: 1.4142135623730951px;"></line><line class="link" x1="431.5544908568302" y1="203.88342796994917" x2="421.91704023208865" y2="253.1092700133854" style="stroke-width: 1.4142135623730951px;"></line><line class="link" x1="445.92046864500094" y1="152.65407333384576" x2="431.5544908568302" y2="203.88342796994917" style="stroke-width: 1px;"></line><line class="link" x1="445.92046864500094" y1="152.65407333384576" x2="406.72375661257706" y2="210.43446788447255" style="stroke-width: 1px;"></line><line class="link" x1="475.9585048550253" y1="141.94164441471838" x2="431.5544908568302" y2="203.88342796994917" style="stroke-width: 1px;"></line><line class="link" x1="409.37612033556877" y1="192.51610237266985" x2="431.5544908568302" y2="203.88342796994917" style="stroke-width: 1.4142135623730951px;"></line><line class="link" x1="409.37612033556877" y1="192.51610237266985" x2="421.8270316145452" y2="221.93019688040977" style="stroke-width: 1px;"></line><line class="link" x1="409.37612033556877" y1="192.51610237266985" x2="399.63184396565117" y2="255.4374080129131" style="stroke-width: 1px;"></line><line class="link" x1="377.2980956297042" y1="219.6001293270103" x2="431.5544908568302" y2="203.88342796994917" style="stroke-width: 2.449489742783178px;"></line><line class="link" x1="377.2980956297042" y1="219.6001293270103" x2="421.8270316145452" y2="221.93019688040977" style="stroke-width: 3.4641016151377544px;"></line><line class="link" x1="377.2980956297042" y1="219.6001293270103" x2="406.72375661257706" y2="210.43446788447255" style="stroke-width: 1px;"></line><line class="link" x1="377.2980956297042" y1="219.6001293270103" x2="409.37612033556877" y2="192.51610237266985" style="stroke-width: 1px;"></line><line class="link" x1="377.2980956297042" y1="219.6001293270103" x2="399.63184396565117" y2="255.4374080129131" style="stroke-width: 4.58257569495584px;"></line><line class="link" x1="377.2980956297042" y1="219.6001293270103" x2="421.91704023208865" y2="253.1092700133854" style="stroke-width: 4.358898943540674px;"></line><line class="link" x1="377.2980956297042" y1="219.6001293270103" x2="383.9675093169219" y2="340.25057493986054" style="stroke-width: 1px;"></line><line class="link" x1="377.2980956297042" y1="219.6001293270103" x2="372.2417623799077" y2="269.5218284530748" style="stroke-width: 1.4142135623730951px;"></line><line class="link" x1="377.2980956297042" y1="219.6001293270103" x2="337.33497009633686" y2="240.54194118928794" style="stroke-width: 2.23606797749979px;"></line><line class="link" x1="377.2980956297042" y1="219.6001293270103" x2="355.6091763221352" y2="213.8183508161327" style="stroke-width: 2px;"></line><line class="link" x1="416.6809701091818" y1="170.5510519985652" x2="421.8270316145452" y2="221.93019688040977" style="stroke-width: 1px;"></line><line class="link" x1="416.6809701091818" y1="170.5510519985652" x2="377.2980956297042" y2="219.6001293270103" style="stroke-width: 1px;"></line><line class="link" x1="332.15530804937464" y1="197.91606437771372" x2="377.2980956297042" y2="219.6001293270103" style="stroke-width: 1px;"></line><line class="link" x1="332.15530804937464" y1="197.91606437771372" x2="337.33497009633686" y2="240.54194118928794" style="stroke-width: 1px;"></line><line class="link" x1="332.15530804937464" y1="197.91606437771372" x2="355.6091763221352" y2="213.8183508161327" style="stroke-width: 1px;"></line><line class="link" x1="373.0603308145671" y1="199.18456534232135" x2="377.2980956297042" y2="219.6001293270103" style="stroke-width: 2.6457513110645907px;"></line><line class="link" x1="373.0603308145671" y1="199.18456534232135" x2="355.6091763221352" y2="213.8183508161327" style="stroke-width: 2.6457513110645907px;"></line><line class="link" x1="373.0603308145671" y1="199.18456534232135" x2="392.661479674221" y2="273.12065409649114" style="stroke-width: 2.449489742783178px;"></line><line class="link" x1="373.0603308145671" y1="199.18456534232135" x2="332.15530804937464" y2="197.91606437771372" style="stroke-width: 1px;"></line><line class="link" x1="373.0603308145671" y1="199.18456534232135" x2="421.91704023208865" y2="253.1092700133854" style="stroke-width: 2px;"></line><line class="link" x1="360.58003224777275" y1="173.84135628719974" x2="373.0603308145671" y2="199.18456534232135" style="stroke-width: 3.872983346207417px;"></line><line class="link" x1="360.58003224777275" y1="173.84135628719974" x2="377.2980956297042" y2="219.6001293270103" style="stroke-width: 2.23606797749979px;"></line><line class="link" x1="360.58003224777275" y1="173.84135628719974" x2="355.6091763221352" y2="213.8183508161327" style="stroke-width: 2.449489742783178px;"></line><line class="link" x1="360.58003224777275" y1="173.84135628719974" x2="332.15530804937464" y2="197.91606437771372" style="stroke-width: 1.4142135623730951px;"></line><line class="link" x1="349.21675595677567" y1="146.79817807437342" x2="355.6091763221352" y2="213.8183508161327" style="stroke-width: 1px;"></line><line class="link" x1="349.21675595677567" y1="146.79817807437342" x2="373.0603308145671" y2="199.18456534232135" style="stroke-width: 2px;"></line><line class="link" x1="349.21675595677567" y1="146.79817807437342" x2="360.58003224777275" y2="173.84135628719974" style="stroke-width: 1.4142135623730951px;"></line><line class="link" x1="372.9282720359409" y1="164.15565105206062" x2="355.6091763221352" y2="213.8183508161327" style="stroke-width: 1.4142135623730951px;"></line><line class="link" x1="372.9282720359409" y1="164.15565105206062" x2="373.0603308145671" y2="199.18456534232135" style="stroke-width: 2.449489742783178px;"></line><line class="link" x1="372.9282720359409" y1="164.15565105206062" x2="349.21675595677567" y2="146.79817807437342" style="stroke-width: 1.4142135623730951px;"></line><line class="link" x1="372.9282720359409" y1="164.15565105206062" x2="360.58003224777275" y2="173.84135628719974" style="stroke-width: 2.23606797749979px;"></line><line class="link" x1="372.9282720359409" y1="164.15565105206062" x2="332.15530804937464" y2="197.91606437771372" style="stroke-width: 1px;"></line><line class="link" x1="372.9282720359409" y1="164.15565105206062" x2="377.2980956297042" y2="219.6001293270103" style="stroke-width: 1px;"></line><line class="link" x1="344.234292253667" y1="186.88547693837833" x2="377.2980956297042" y2="219.6001293270103" style="stroke-width: 3px;"></line><line class="link" x1="344.234292253667" y1="186.88547693837833" x2="373.0603308145671" y2="199.18456534232135" style="stroke-width: 4.123105625617661px;"></line><line class="link" x1="344.234292253667" y1="186.88547693837833" x2="360.58003224777275" y2="173.84135628719974" style="stroke-width: 3.605551275463989px;"></line><line class="link" x1="344.234292253667" y1="186.88547693837833" x2="355.6091763221352" y2="213.8183508161327" style="stroke-width: 2.6457513110645907px;"></line><line class="link" x1="344.234292253667" y1="186.88547693837833" x2="332.15530804937464" y2="197.91606437771372" style="stroke-width: 1.4142135623730951px;"></line><line class="link" x1="344.234292253667" y1="186.88547693837833" x2="337.33497009633686" y2="240.54194118928794" style="stroke-width: 1px;"></line><line class="link" x1="344.234292253667" y1="186.88547693837833" x2="372.9282720359409" y2="164.15565105206062" style="stroke-width: 2.449489742783178px;"></line><line class="link" x1="344.234292253667" y1="186.88547693837833" x2="349.21675595677567" y2="146.79817807437342" style="stroke-width: 1.7320508075688772px;"></line><line class="link" x1="332.8379766467582" y1="173.67640580689852" x2="360.58003224777275" y2="173.84135628719974" style="stroke-width: 2.23606797749979px;"></line><line class="link" x1="332.8379766467582" y1="173.67640580689852" x2="355.6091763221352" y2="213.8183508161327" style="stroke-width: 2.23606797749979px;"></line><line class="link" x1="332.8379766467582" y1="173.67640580689852" x2="344.234292253667" y2="186.88547693837833" style="stroke-width: 2.449489742783178px;"></line><line class="link" x1="332.8379766467582" y1="173.67640580689852" x2="332.15530804937464" y2="197.91606437771372" style="stroke-width: 1.4142135623730951px;"></line><line class="link" x1="332.8379766467582" y1="173.67640580689852" x2="373.0603308145671" y2="199.18456534232135" style="stroke-width: 2px;"></line><line class="link" x1="332.8379766467582" y1="173.67640580689852" x2="372.9282720359409" y2="164.15565105206062" style="stroke-width: 1.7320508075688772px;"></line><line class="link" x1="332.8379766467582" y1="173.67640580689852" x2="349.21675595677567" y2="146.79817807437342" style="stroke-width: 1.4142135623730951px;"></line><line class="link" x1="332.8379766467582" y1="173.67640580689852" x2="377.2980956297042" y2="219.6001293270103" style="stroke-width: 1px;"></line><line class="link" x1="379.7045176119088" y1="182.95431152475766" x2="377.2980956297042" y2="219.6001293270103" style="stroke-width: 2.23606797749979px;"></line><line class="link" x1="379.7045176119088" y1="182.95431152475766" x2="344.234292253667" y2="186.88547693837833" style="stroke-width: 3.4641016151377544px;"></line><line class="link" x1="379.7045176119088" y1="182.95431152475766" x2="355.6091763221352" y2="213.8183508161327" style="stroke-width: 2.23606797749979px;"></line><line class="link" x1="379.7045176119088" y1="182.95431152475766" x2="332.8379766467582" y2="173.67640580689852" style="stroke-width: 2px;"></line><line class="link" x1="379.7045176119088" y1="182.95431152475766" x2="373.0603308145671" y2="199.18456534232135" style="stroke-width: 3.1622776601683795px;"></line><line class="link" x1="379.7045176119088" y1="182.95431152475766" x2="372.9282720359409" y2="164.15565105206062" style="stroke-width: 2.449489742783178px;"></line><line class="link" x1="379.7045176119088" y1="182.95431152475766" x2="349.21675595677567" y2="146.79817807437342" style="stroke-width: 1.4142135623730951px;"></line><line class="link" x1="379.7045176119088" y1="182.95431152475766" x2="360.58003224777275" y2="173.84135628719974" style="stroke-width: 3px;"></line><line class="link" x1="379.7045176119088" y1="182.95431152475766" x2="332.15530804937464" y2="197.91606437771372" style="stroke-width: 1px;"></line><line class="link" x1="379.7045176119088" y1="182.95431152475766" x2="421.91704023208865" y2="253.1092700133854" style="stroke-width: 1px;"></line><line class="link" x1="347.98998837980326" y1="167.54342482090323" x2="332.8379766467582" y2="173.67640580689852" style="stroke-width: 2.23606797749979px;"></line><line class="link" x1="347.98998837980326" y1="167.54342482090323" x2="379.7045176119088" y2="182.95431152475766" style="stroke-width: 2.6457513110645907px;"></line><line class="link" x1="347.98998837980326" y1="167.54342482090323" x2="355.6091763221352" y2="213.8183508161327" style="stroke-width: 1.7320508075688772px;"></line><line class="link" x1="347.98998837980326" y1="167.54342482090323" x2="344.234292253667" y2="186.88547693837833" style="stroke-width: 2.23606797749979px;"></line><line class="link" x1="347.98998837980326" y1="167.54342482090323" x2="373.0603308145671" y2="199.18456534232135" style="stroke-width: 2.23606797749979px;"></line><line class="link" x1="347.98998837980326" y1="167.54342482090323" x2="372.9282720359409" y2="164.15565105206062" style="stroke-width: 2.23606797749979px;"></line><line class="link" x1="347.98998837980326" y1="167.54342482090323" x2="349.21675595677567" y2="146.79817807437342" style="stroke-width: 1.4142135623730951px;"></line><line class="link" x1="347.98998837980326" y1="167.54342482090323" x2="360.58003224777275" y2="173.84135628719974" style="stroke-width: 2.23606797749979px;"></line><line class="link" x1="347.98998837980326" y1="167.54342482090323" x2="332.15530804937464" y2="197.91606437771372" style="stroke-width: 1px;"></line><line class="link" x1="347.98998837980326" y1="167.54342482090323" x2="377.2980956297042" y2="219.6001293270103" style="stroke-width: 1.4142135623730951px;"></line><line class="link" x1="367.3048245402107" y1="146.19005901089685" x2="379.7045176119088" y2="182.95431152475766" style="stroke-width: 1.7320508075688772px;"></line><line class="link" x1="367.3048245402107" y1="146.19005901089685" x2="373.0603308145671" y2="199.18456534232135" style="stroke-width: 1.7320508075688772px;"></line><line class="link" x1="367.3048245402107" y1="146.19005901089685" x2="360.58003224777275" y2="173.84135628719974" style="stroke-width: 1px;"></line><line class="link" x1="367.3048245402107" y1="146.19005901089685" x2="344.234292253667" y2="186.88547693837833" style="stroke-width: 1.4142135623730951px;"></line><line class="link" x1="367.3048245402107" y1="146.19005901089685" x2="347.98998837980326" y2="167.54342482090323" style="stroke-width: 1.4142135623730951px;"></line><line class="link" x1="367.3048245402107" y1="146.19005901089685" x2="355.6091763221352" y2="213.8183508161327" style="stroke-width: 1px;"></line><line class="link" x1="367.3048245402107" y1="146.19005901089685" x2="332.8379766467582" y2="173.67640580689852" style="stroke-width: 1px;"></line><line class="link" x1="367.3048245402107" y1="146.19005901089685" x2="372.9282720359409" y2="164.15565105206062" style="stroke-width: 1px;"></line><line class="link" x1="367.3048245402107" y1="146.19005901089685" x2="349.21675595677567" y2="146.79817807437342" style="stroke-width: 1px;"></line><line class="link" x1="280.8674722073786" y1="159.2541933837569" x2="332.15530804937464" y2="197.91606437771372" style="stroke-width: 1.7320508075688772px;"></line><line class="link" x1="358.2561893363451" y1="257.56612145596966" x2="372.2417623799077" y2="269.5218284530748" style="stroke-width: 2.23606797749979px;"></line><line class="link" x1="358.2561893363451" y1="257.56612145596966" x2="421.91704023208865" y2="253.1092700133854" style="stroke-width: 1px;"></line><line class="link" x1="358.2561893363451" y1="257.56612145596966" x2="374.91917004954524" y2="292.4657851407053" style="stroke-width: 1px;"></line><line class="link" x1="358.2561893363451" y1="257.56612145596966" x2="392.661479674221" y2="273.12065409649114" style="stroke-width: 1px;"></line><line class="link" x1="358.2561893363451" y1="257.56612145596966" x2="355.6091763221352" y2="213.8183508161327" style="stroke-width: 1px;"></line><line class="link" x1="358.2561893363451" y1="257.56612145596966" x2="337.33497009633686" y2="240.54194118928794" style="stroke-width: 1px;"></line><line class="link" x1="353.74459699957856" y1="272.0388277060657" x2="372.2417623799077" y2="269.5218284530748" style="stroke-width: 2.449489742783178px;"></line><line class="link" x1="353.74459699957856" y1="272.0388277060657" x2="358.2561893363451" y2="257.56612145596966" style="stroke-width: 2.449489742783178px;"></line><line class="link" x1="353.74459699957856" y1="272.0388277060657" x2="421.91704023208865" y2="253.1092700133854" style="stroke-width: 1px;"></line><line class="link" x1="353.74459699957856" y1="272.0388277060657" x2="374.91917004954524" y2="292.4657851407053" style="stroke-width: 1px;"></line><line class="link" x1="353.74459699957856" y1="272.0388277060657" x2="392.661479674221" y2="273.12065409649114" style="stroke-width: 1.4142135623730951px;"></line><line class="link" x1="353.74459699957856" y1="272.0388277060657" x2="355.6091763221352" y2="213.8183508161327" style="stroke-width: 1px;"></line><line class="link" x1="353.74459699957856" y1="272.0388277060657" x2="337.33497009633686" y2="240.54194118928794" style="stroke-width: 1px;"></line><line class="link" x1="379.2136134972914" y1="245.85774699628013" x2="372.2417623799077" y2="269.5218284530748" style="stroke-width: 2px;"></line><line class="link" x1="379.2136134972914" y1="245.85774699628013" x2="353.74459699957856" y2="272.0388277060657" style="stroke-width: 2px;"></line><line class="link" x1="379.2136134972914" y1="245.85774699628013" x2="358.2561893363451" y2="257.56612145596966" style="stroke-width: 2px;"></line><line class="link" x1="379.2136134972914" y1="245.85774699628013" x2="421.91704023208865" y2="253.1092700133854" style="stroke-width: 1px;"></line><line class="link" x1="379.2136134972914" y1="245.85774699628013" x2="374.91917004954524" y2="292.4657851407053" style="stroke-width: 1px;"></line><line class="link" x1="379.2136134972914" y1="245.85774699628013" x2="392.661479674221" y2="273.12065409649114" style="stroke-width: 1px;"></line><line class="link" x1="379.2136134972914" y1="245.85774699628013" x2="337.33497009633686" y2="240.54194118928794" style="stroke-width: 1px;"></line><line class="link" x1="379.2136134972914" y1="245.85774699628013" x2="373.0603308145671" y2="199.18456534232135" style="stroke-width: 1px;"></line><line class="link" x1="364.8568200685657" y1="241.95158686765097" x2="392.661479674221" y2="273.12065409649114" style="stroke-width: 1px;"></line><line class="link" x1="364.8568200685657" y1="241.95158686765097" x2="353.74459699957856" y2="272.0388277060657" style="stroke-width: 1.4142135623730951px;"></line><line class="link" x1="364.8568200685657" y1="241.95158686765097" x2="358.2561893363451" y2="257.56612145596966" style="stroke-width: 1.4142135623730951px;"></line><line class="link" x1="364.8568200685657" y1="241.95158686765097" x2="379.2136134972914" y2="245.85774699628013" style="stroke-width: 1.4142135623730951px;"></line><line class="link" x1="364.8568200685657" y1="241.95158686765097" x2="421.91704023208865" y2="253.1092700133854" style="stroke-width: 1px;"></line><line class="link" x1="364.8568200685657" y1="241.95158686765097" x2="355.6091763221352" y2="213.8183508161327" style="stroke-width: 1px;"></line><line class="link" x1="364.8568200685657" y1="241.95158686765097" x2="337.33497009633686" y2="240.54194118928794" style="stroke-width: 1px;"></line><line class="link" x1="364.8568200685657" y1="241.95158686765097" x2="372.2417623799077" y2="269.5218284530748" style="stroke-width: 1px;"></line><line class="link" x1="404.5543043285929" y1="299.3449133066909" x2="399.63184396565117" y2="255.4374080129131" style="stroke-width: 1.4142135623730951px;"></line><line class="link" x1="404.5543043285929" y1="299.3449133066909" x2="392.661479674221" y2="273.12065409649114" style="stroke-width: 1px;"></line><line class="link" x1="404.5543043285929" y1="299.3449133066909" x2="421.91704023208865" y2="253.1092700133854" style="stroke-width: 1px;"></line><line class="link" x1="292.1692088748877" y1="212.70742417733356" x2="355.6091763221352" y2="213.8183508161327" style="stroke-width: 1.4142135623730951px;"></line><line class="link" x1="295.69871822216146" y1="185.61816455418398" x2="355.6091763221352" y2="213.8183508161327" style="stroke-width: 1.4142135623730951px;"></line><line class="link" x1="295.69871822216146" y1="185.61816455418398" x2="292.1692088748877" y2="212.70742417733356" style="stroke-width: 1.7320508075688772px;"></line><line class="link" x1="327.4841700806222" y1="259.3854452906203" x2="353.74459699957856" y2="272.0388277060657" style="stroke-width: 1.7320508075688772px;"></line><line class="link" x1="327.4841700806222" y1="259.3854452906203" x2="358.2561893363451" y2="257.56612145596966" style="stroke-width: 1.7320508075688772px;"></line><line class="link" x1="327.4841700806222" y1="259.3854452906203" x2="372.2417623799077" y2="269.5218284530748" style="stroke-width: 1.7320508075688772px;"></line><line class="link" x1="327.4841700806222" y1="259.3854452906203" x2="355.6091763221352" y2="213.8183508161327" style="stroke-width: 1px;"></line><line class="link" x1="327.4841700806222" y1="259.3854452906203" x2="337.33497009633686" y2="240.54194118928794" style="stroke-width: 1px;"></line><line class="link" x1="327.4841700806222" y1="259.3854452906203" x2="379.2136134972914" y2="245.85774699628013" style="stroke-width: 1px;"></line><line class="link" x1="327.4841700806222" y1="259.3854452906203" x2="364.8568200685657" y2="241.95158686765097" style="stroke-width: 1px;"></line><line class="link" x1="337.5221207210001" y1="152.51553815147292" x2="379.7045176119088" y2="182.95431152475766" style="stroke-width: 1px;"></line><line class="link" x1="337.5221207210001" y1="152.51553815147292" x2="347.98998837980326" y2="167.54342482090323" style="stroke-width: 1px;"></line><line class="link" x1="337.5221207210001" y1="152.51553815147292" x2="367.3048245402107" y2="146.19005901089685" style="stroke-width: 1px;"></line><line class="link" x1="337.5221207210001" y1="152.51553815147292" x2="332.8379766467582" y2="173.67640580689852" style="stroke-width: 1px;"></line><line class="link" x1="337.5221207210001" y1="152.51553815147292" x2="344.234292253667" y2="186.88547693837833" style="stroke-width: 1px;"></line><line class="link" x1="337.5221207210001" y1="152.51553815147292" x2="355.6091763221352" y2="213.8183508161327" style="stroke-width: 1px;"></line><line class="link" x1="337.5221207210001" y1="152.51553815147292" x2="373.0603308145671" y2="199.18456534232135" style="stroke-width: 1px;"></line><circle class="node" r="5" cx="525.3704429033392" cy="230.19818967546067" style="fill: rgb(31, 119, 180);"><title>Myriel</title></circle><circle class="node" r="5" cx="576.9060481417262" cy="207.38761377364398" style="fill: rgb(31, 119, 180);"><title>Napoleon</title></circle><circle class="node" r="5" cx="500.1312618080803" cy="247.3304162608597" style="fill: rgb(31, 119, 180);"><title>Mlle.Baptistine</title></circle><circle class="node" r="5" cx="494.73081000573364" cy="217.99120662501764" style="fill: rgb(31, 119, 180);"><title>Mme.Magloire</title></circle><circle class="node" r="5" cx="596.6915110161882" cy="241.1155375282944" style="fill: rgb(31, 119, 180);"><title>CountessdeLo</title></circle><circle class="node" r="5" cx="584.1949333963883" cy="189.34232419835564" style="fill: rgb(31, 119, 180);"><title>Geborand</title></circle><circle class="node" r="5" cx="581.3794189428511" cy="231.7461137671769" style="fill: rgb(31, 119, 180);"><title>Champtercier</title></circle><circle class="node" r="5" cx="564.8694347878413" cy="180.50697171897633" style="fill: rgb(31, 119, 180);"><title>Cravatte</title></circle><circle class="node" r="5" cx="596.0219831381094" cy="214.25764456394242" style="fill: rgb(31, 119, 180);"><title>Count</title></circle><circle class="node" r="5" cx="582.9920768911653" cy="258.40212706616376" style="fill: rgb(31, 119, 180);"><title>OldMan</title></circle><circle class="node" r="5" cx="460.28706559886143" cy="194.70505742610624" style="fill: rgb(174, 199, 232);"><title>Labarre</title></circle><circle class="node" r="5" cx="421.91704023208865" cy="253.1092700133854" style="fill: rgb(174, 199, 232);"><title>Valjean</title></circle><circle class="node" r="5" cx="443.7051323456795" cy="326.0354867859254" style="fill: rgb(255, 127, 14);"><title>Marguerite</title></circle><circle class="node" r="5" cx="466.12224203501347" cy="215.67083195620395" style="fill: rgb(174, 199, 232);"><title>Mme.deR</title></circle><circle class="node" r="5" cx="478.0465885903053" cy="230.1961560212624" style="fill: rgb(174, 199, 232);"><title>Isabeau</title></circle><circle class="node" r="5" cx="479.21868253900914" cy="200.68217263183743" style="fill: rgb(174, 199, 232);"><title>Gervais</title></circle><circle class="node" r="5" cx="383.9675093169219" cy="340.25057493986054" style="fill: rgb(255, 127, 14);"><title>Tholomyes</title></circle><circle class="node" r="5" cx="374.938599164466" cy="382.60271613149496" style="fill: rgb(255, 127, 14);"><title>Listolier</title></circle><circle class="node" r="5" cx="395.076638827628" cy="380.8932215774596" style="fill: rgb(255, 127, 14);"><title>Fameuil</title></circle><circle class="node" r="5" cx="399.72582056628823" cy="404.68723190044125" style="fill: rgb(255, 127, 14);"><title>Blacheville</title></circle><circle class="node" r="5" cx="415.59778057182115" cy="381.0071553260192" style="fill: rgb(255, 127, 14);"><title>Favourite</title></circle><circle class="node" r="5" cx="381.2322385724019" cy="399.9347285597482" style="fill: rgb(255, 127, 14);"><title>Dahlia</title></circle><circle class="node" r="5" cx="417.41089895007" cy="398.26468568128803" style="fill: rgb(255, 127, 14);"><title>Zephine</title></circle><circle class="node" r="5" cx="403.6478243563874" cy="334.34394867384884" style="fill: rgb(255, 127, 14);"><title>Fantine</title></circle><circle class="node" r="5" cx="374.91917004954524" cy="292.4657851407053" style="fill: rgb(255, 187, 120);"><title>Mme.Thenardier</title></circle><circle class="node" r="5" cx="372.2417623799077" cy="269.5218284530748" style="fill: rgb(255, 187, 120);"><title>Thenardier</title></circle><circle class="node" r="5" cx="399.63184396565117" cy="255.4374080129131" style="fill: rgb(44, 160, 44);"><title>Cosette</title></circle><circle class="node" r="5" cx="392.661479674221" cy="273.12065409649114" style="fill: rgb(255, 187, 120);"><title>Javert</title></circle><circle class="node" r="5" cx="439.59007677328367" cy="306.25184275704515" style="fill: rgb(152, 223, 138);"><title>Fauchelevent</title></circle><circle class="node" r="5" cx="451.2386057799461" cy="296.7011175055092" style="fill: rgb(174, 199, 232);"><title>Bamatabois</title></circle><circle class="node" r="5" cx="444.99687903968476" cy="369.1810885933733" style="fill: rgb(255, 127, 14);"><title>Perpetue</title></circle><circle class="node" r="5" cx="422.3265918915111" cy="314.3623148890521" style="fill: rgb(174, 199, 232);"><title>Simplice</title></circle><circle class="node" r="5" cx="480.2962541803101" cy="247.69785200414867" style="fill: rgb(174, 199, 232);"><title>Scaufflaire</title></circle><circle class="node" r="5" cx="444.58594817309876" cy="276.65593282173876" style="fill: rgb(174, 199, 232);"><title>Woman1</title></circle><circle class="node" r="5" cx="475.26493496884365" cy="268.8815945026509" style="fill: rgb(174, 199, 232);"><title>Judge</title></circle><circle class="node" r="5" cx="476.9172927935458" cy="289.32451150493085" style="fill: rgb(174, 199, 232);"><title>Champmathieu</title></circle><circle class="node" r="5" cx="488.4349087328826" cy="305.7433404019887" style="fill: rgb(174, 199, 232);"><title>Brevet</title></circle><circle class="node" r="5" cx="495.4355877956108" cy="271.0702165464437" style="fill: rgb(174, 199, 232);"><title>Chenildieu</title></circle><circle class="node" r="5" cx="500.7933808169381" cy="289.65114532088154" style="fill: rgb(174, 199, 232);"><title>Cochepaille</title></circle><circle class="node" r="5" cx="406.72375661257706" cy="210.43446788447255" style="fill: rgb(255, 187, 120);"><title>Pontmercy</title></circle><circle class="node" r="5" cx="329.32105103709847" cy="322.5817981964521" style="fill: rgb(214, 39, 40);"><title>Boulatruelle</title></circle><circle class="node" r="5" cx="337.33497009633686" cy="240.54194118928794" style="fill: rgb(255, 187, 120);"><title>Eponine</title></circle><circle class="node" r="5" cx="329.2718437723415" cy="292.22203604333146" style="fill: rgb(255, 187, 120);"><title>Anzelma</title></circle><circle class="node" r="5" cx="423.5237927233779" cy="290.6633498832969" style="fill: rgb(44, 160, 44);"><title>Woman2</title></circle><circle class="node" r="5" cx="471.6632799738629" cy="311.3819430557917" style="fill: rgb(152, 223, 138);"><title>MotherInnocent</title></circle><circle class="node" r="5" cx="499.69546346577226" cy="359.9288748839991" style="fill: rgb(152, 223, 138);"><title>Gribier</title></circle><circle class="node" r="5" cx="229.27068495582174" cy="255.49828279703598" style="fill: rgb(255, 152, 150);"><title>Jondrette</title></circle><circle class="node" r="5" cx="283.5608945363394" cy="234.62075670944682" style="fill: rgb(255, 152, 150);"><title>Mme.Burgon</title></circle><circle class="node" r="5" cx="355.6091763221352" cy="213.8183508161327" style="fill: rgb(148, 103, 189);"><title>Gavroche</title></circle><circle class="node" r="5" cx="421.8270316145452" cy="221.93019688040977" style="fill: rgb(44, 160, 44);"><title>Gillenormand</title></circle><circle class="node" r="5" cx="416.0745914275987" cy="271.18963249259724" style="fill: rgb(44, 160, 44);"><title>Magnon</title></circle><circle class="node" r="5" cx="431.5544908568302" cy="203.88342796994917" style="fill: rgb(44, 160, 44);"><title>Mlle.Gillenormand</title></circle><circle class="node" r="5" cx="445.92046864500094" cy="152.65407333384576" style="fill: rgb(44, 160, 44);"><title>Mme.Pontmercy</title></circle><circle class="node" r="5" cx="475.9585048550253" cy="141.94164441471838" style="fill: rgb(44, 160, 44);"><title>Mlle.Vaubois</title></circle><circle class="node" r="5" cx="409.37612033556877" cy="192.51610237266985" style="fill: rgb(44, 160, 44);"><title>Lt.Gillenormand</title></circle><circle class="node" r="5" cx="377.2980956297042" cy="219.6001293270103" style="fill: rgb(148, 103, 189);"><title>Marius</title></circle><circle class="node" r="5" cx="416.6809701091818" cy="170.5510519985652" style="fill: rgb(44, 160, 44);"><title>BaronessT</title></circle><circle class="node" r="5" cx="332.15530804937464" cy="197.91606437771372" style="fill: rgb(148, 103, 189);"><title>Mabeuf</title></circle><circle class="node" r="5" cx="373.0603308145671" cy="199.18456534232135" style="fill: rgb(148, 103, 189);"><title>Enjolras</title></circle><circle class="node" r="5" cx="360.58003224777275" cy="173.84135628719974" style="fill: rgb(148, 103, 189);"><title>Combeferre</title></circle><circle class="node" r="5" cx="349.21675595677567" cy="146.79817807437342" style="fill: rgb(148, 103, 189);"><title>Prouvaire</title></circle><circle class="node" r="5" cx="372.9282720359409" cy="164.15565105206062" style="fill: rgb(148, 103, 189);"><title>Feuilly</title></circle><circle class="node" r="5" cx="344.234292253667" cy="186.88547693837833" style="fill: rgb(148, 103, 189);"><title>Courfeyrac</title></circle><circle class="node" r="5" cx="332.8379766467582" cy="173.67640580689852" style="fill: rgb(148, 103, 189);"><title>Bahorel</title></circle><circle class="node" r="5" cx="379.7045176119088" cy="182.95431152475766" style="fill: rgb(148, 103, 189);"><title>Bossuet</title></circle><circle class="node" r="5" cx="347.98998837980326" cy="167.54342482090323" style="fill: rgb(148, 103, 189);"><title>Joly</title></circle><circle class="node" r="5" cx="367.3048245402107" cy="146.19005901089685" style="fill: rgb(148, 103, 189);"><title>Grantaire</title></circle><circle class="node" r="5" cx="280.8674722073786" cy="159.2541933837569" style="fill: rgb(197, 176, 213);"><title>MotherPlutarch</title></circle><circle class="node" r="5" cx="358.2561893363451" cy="257.56612145596966" style="fill: rgb(255, 187, 120);"><title>Gueulemer</title></circle><circle class="node" r="5" cx="353.74459699957856" cy="272.0388277060657" style="fill: rgb(255, 187, 120);"><title>Babet</title></circle><circle class="node" r="5" cx="379.2136134972914" cy="245.85774699628013" style="fill: rgb(255, 187, 120);"><title>Claquesous</title></circle><circle class="node" r="5" cx="364.8568200685657" cy="241.95158686765097" style="fill: rgb(255, 187, 120);"><title>Montparnasse</title></circle><circle class="node" r="5" cx="404.5543043285929" cy="299.3449133066909" style="fill: rgb(44, 160, 44);"><title>Toussaint</title></circle><circle class="node" r="5" cx="292.1692088748877" cy="212.70742417733356" style="fill: rgb(140, 86, 75);"><title>Child1</title></circle><circle class="node" r="5" cx="295.69871822216146" cy="185.61816455418398" style="fill: rgb(140, 86, 75);"><title>Child2</title></circle><circle class="node" r="5" cx="327.4841700806222" cy="259.3854452906203" style="fill: rgb(255, 187, 120);"><title>Brujon</title></circle><circle class="node" r="5" cx="337.5221207210001" cy="152.51553815147292" style="fill: rgb(148, 103, 189);"><title>Mme.Hucheloup</title></circle></svg>